<svg width="48" height="48" viewBox="0 0 48 48" fill="none" xmlns="http://www.w3.org/2000/svg" xmlns:xlink="http://www.w3.org/1999/xlink">
<path d="M10,24L38,24L38,20L10,20L10,24ZM38,24C39.105,24 40,24.895 40,26L44,26C44,22.686 41.314,20 38,20L38,24ZM40,26L40,40L44,40L44,26L40,26ZM40,40C40,41.105 39.105,42 38,42L38,46C41.314,46 44,43.314 44,40L40,40ZM38,42L10,42L10,46L38,46L38,42ZM10,42C8.895,42 8,41.105 8,40L4,40C4,43.314 6.686,46 10,46L10,42ZM8,40L8,26L4,26L4,40L8,40ZM8,26C8,24.895 8.895,24 10,24L10,20C6.686,20 4,22.686 4,26L8,26Z" fill="#000000"/>
<path d="M12,22C12,23.105 12.895,24 14,24C15.105,24 16,23.105 16,22L12,22ZM14,14L12,14L14,14ZM24,4L24,2L24,4ZM32,22C32,23.105 32.895,24 34,24C35.105,24 36,23.105 36,22L32,22ZM16,22L16,14L12,14L12,22L16,22ZM16,14C16,11.878 16.843,9.843 18.343,8.343L15.515,5.515C13.264,7.765 12,10.817 12,14L16,14ZM18.343,8.343C19.843,6.843 21.878,6 24,6L24,2C20.817,2 17.765,3.264 15.515,5.515L18.343,8.343ZM24,6C26.122,6 28.157,6.843 29.657,8.343L32.485,5.515C30.235,3.264 27.183,2 24,2L24,6ZM29.657,8.343C31.157,9.843 32,11.878 32,14L36,14C36,10.817 34.736,7.765 32.485,5.515L29.657,8.343ZM32,14L32,22L36,22L36,14L32,14Z" fill="#000000"/>
<path d="M10,24L38,24L38,20L10,20L10,24ZM38,24C39.105,24 40,24.895 40,26L44,26C44,22.686 41.314,20 38,20L38,24ZM40,26L40,40L44,40L44,26L40,26ZM40,40C40,41.105 39.105,42 38,42L38,46C41.314,46 44,43.314 44,40L40,40ZM38,42L10,42L10,46L38,46L38,42ZM10,42C8.895,42 8,41.105 8,40L4,40C4,43.314 6.686,46 10,46L10,42ZM8,40L8,26L4,26L4,40L8,40ZM8,26C8,24.895 8.895,24 10,24L10,20C6.686,20 4,22.686 4,26L8,26Z" fill="#000000"/>
<path d="M12,22C12,23.105 12.895,24 14,24C15.105,24 16,23.105 16,22L12,22ZM14,14L12,14L14,14ZM24,4L24,2L24,4ZM32,22C32,23.105 32.895,24 34,24C35.105,24 36,23.105 36,22L32,22ZM16,22L16,14L12,14L12,22L16,22ZM16,14C16,11.878 16.843,9.843 18.343,8.343L15.515,5.515C13.264,7.765 12,10.817 12,14L16,14ZM18.343,8.343C19.843,6.843 21.878,6 24,6L24,2C20.817,2 17.765,3.264 15.515,5.515L18.343,8.343ZM24,6C26.122,6 28.157,6.843 29.657,8.343L32.485,5.515C30.235,3.264 27.183,2 24,2L24,6ZM29.657,8.343C31.157,9.843 32,11.878 32,14L36,14C36,10.817 34.736,7.765 32.485,5.515L29.657,8.343ZM32,14L32,22L36,22L36,14L32,14Z" fill="#000000"/>
</svg>
